<?xml version="1.0" encoding="UTF-8"?>
<svg id="Capa_1" data-name="Capa 1" xmlns="http://www.w3.org/2000/svg" viewBox="0 0 71.29 128.66">
  <path d="M19.56,110.42c0,3.57,1.69,5.64,5.64,5.64,7.9,0,17.12-11.66,27.09-33.11.56-1.32,1.5-1.69,2.07-1.69.94,0,1.69.94.94,2.63-8.46,21.26-25.77,44.77-42.51,44.77-9.03,0-12.79-5.45-12.79-13.17,0-4.89,1.69-10.72,4.14-17.68l22.01-62.83c.75-2.45.56-4.52-2.82-4.52h-11.85c-1.32,0-1.88-.75-1.88-1.32,0-.94,1.13-1.88,2.63-1.88,20.13,0,31.23-8.65,39.88-25.58.56-1.13,1.69-1.69,2.45-1.69,1.13,0,1.69.75,1.5,1.69l-7.34,20.5c-1.13,3.2-.94,5.83,3.01,5.83,6.21,0,12.23-1.51,17.31-1.51,1.5,0,2.26,1.13,2.26,2.07,0,1.32-1.13,2.63-3.2,2.63h-17.87c-2.45,0-4.89,1.13-6.02,4.51l-21.44,62.26c-1.32,3.57-3.2,9.4-3.2,12.42Z"/>
</svg>