<?xml version="1.0" encoding="UTF-8"?>
<svg id="Capa_1" data-name="Capa 1" xmlns="http://www.w3.org/2000/svg" viewBox="0 0 211.87 233.64">
  <path d="M192.62,42.42v63.43c-3.32-4.16-7.12-7.8-11.45-10.88-9.02-6.42-20.12-9.63-33.3-9.63s-23.85,3.25-33.04,9.76c-9.19,6.5-16.24,15.35-21.14,26.54-4.9,11.19-7.35,23.76-7.35,37.73,0,2.76.1,5.46.29,8.11-14.91,28.17-28.74,43.28-40.86,43.28-7.17,0-10.25-3.76-10.25-10.25,0-5.47,3.42-16.05,5.81-22.54l38.94-113.06c2.05-6.15,6.49-8.2,10.93-8.2h32.45c3.76,0,5.81-2.39,5.81-4.78,0-1.71-1.37-3.76-4.1-3.76-9.22,0-20.15,2.73-31.43,2.73-7.17,0-7.52-4.78-5.47-10.59L101.79,3.07c.34-1.71-.68-3.07-2.73-3.07-1.37,0-3.42,1.03-4.44,3.07-15.71,30.74-35.87,46.46-72.42,46.46-2.73,0-4.78,1.71-4.78,3.42,0,1.03,1.02,2.39,3.42,2.39h21.52c6.15,0,6.49,3.76,5.12,8.2L7.52,177.62c-4.44,12.64-7.52,23.23-7.52,32.11,0,14,6.83,23.91,23.23,23.91,23.64,0,47.9-25.82,64.75-55.46,1.23,6.75,3.15,13.1,5.78,19.04,4.94,11.19,12.05,20.06,21.33,26.6,9.28,6.55,20.47,9.82,33.56,9.82s23.85-3.28,32.78-9.82c5.15-3.78,9.56-8.36,13.27-13.69v19.61h17.17V42.42h-19.25ZM189.89,188.44c-3.21,8.54-8.07,15.24-14.57,20.1-6.5,4.86-14.74,7.28-24.72,7.28s-17.95-2.47-24.46-7.42c-6.5-4.94-11.38-11.69-14.64-20.23-3.25-8.54-4.88-18.15-4.88-28.82s1.58-20.12,4.75-28.62c3.16-8.5,8.04-15.22,14.63-20.16,6.59-4.94,14.91-7.42,24.98-7.42s17.93,2.39,24.39,7.16c6.46,4.77,11.29,11.38,14.5,19.84,3.21,8.46,4.81,18.19,4.81,29.2s-1.61,20.53-4.81,29.08Z"/>
</svg>