<?xml version="1.0" encoding="UTF-8"?>
<svg id="Capa_1" data-name="Capa 1" xmlns="http://www.w3.org/2000/svg" viewBox="0 0 579.7 123.9">
  <defs>
    <style>
      .cls-1 {
        fill: #192026;
      }
    </style>
  </defs>
  <path class="cls-1" d="M33,67.03c-.34,0-.91.23-1.26,1.03-6.05,13.02-11.65,20.1-16.44,20.1-2.4,0-3.43-1.26-3.43-3.43,0-1.83,1.14-5.37,1.94-7.54l13.02-37.8c.69-2.06,2.17-2.74,3.65-2.74h10.85c1.26,0,1.94-.8,1.94-1.6,0-.57-.46-1.26-1.37-1.26-3.08,0-6.74.91-10.51.91-2.4,0-2.51-1.6-1.83-3.54l4.45-12.45c.11-.57-.23-1.03-.91-1.03-.46,0-1.14.34-1.48,1.03-5.25,10.28-11.99,15.53-24.21,15.53-.91,0-1.6.57-1.6,1.14,0,.34.34.8,1.14.8h7.19c2.06,0,2.17,1.26,1.71,2.74L2.51,77.08c-1.48,4.22-2.51,7.76-2.51,10.73,0,4.68,2.28,7.99,7.77,7.99,10.16,0,20.67-14.27,25.81-27.18.46-1.03,0-1.6-.57-1.6Z"/>
  <path class="cls-1" d="M90.44,37.46c0-2.51-1.6-4.91-5.71-4.91-8.45,0-15.99,8.91-27.64,36.77-.57,1.26-2.28,1.26-1.48-.57l6.62-17.7c2.28-5.71,3.54-8.56,3.65-11.42.11-3.65-1.48-6.85-7.54-6.97-9.71-.23-18.16,16.79-23.18,28.09-.69,1.6-.46,2.06.23,2.06s1.14-.34,1.83-1.71c6.4-13.7,11.31-19.64,14.39-19.64,2.51.11,2.63,3.43.34,9.82l-10.96,33.23c-3.08,9.02-.11,11.88,4.8,11.88,3.54,0,7.31-1.94,7.77-5.02.46-2.28-.8-6.74,2.06-14.96,10.16-26.27,18.5-33.35,23.07-33.35,2.28,0,3.43,1.37,5.82,1.37,3.43,0,5.94-3.31,5.94-6.97Z"/>
  <path class="cls-1" d="M139.09,65.43c-.57,0-1.03.46-1.71,1.83-6.28,13.7-10.51,19.76-13.59,19.76-2.51,0-2.63-3.43-.34-9.71l4.45-13.36c3.43-10.85,7.99-20.44,12.45-30.03.69-1.26-.11-1.94-1.14-1.94-2.51,0-5.14,5.14-9.14,5.14-2.06,0-2.85.91-3.65,2.85l-.8,2.51c-.91,2.4-1.83,2.28-2.17-.23-1.14-5.71-3.77-9.59-9.59-9.59-15.99,0-34.26,28.09-34.26,48.42,0,8.79,3.54,15.19,10.51,15.19,9.36,0,17.7-15.3,21.81-23.18.57-1.14,1.26-1.71,2.06-1.71.69,0,1.03.68.57,2.06l-1.48,4.11c-2.17,5.71-3.43,8.68-3.43,11.42,0,3.77,1.48,6.85,7.54,6.97,9.71,0,17.36-17.01,22.27-28.43.69-1.6.46-2.06-.34-2.06ZM117.39,58.93c-4.91,13.47-14.85,28.66-22.04,28.66-2.74,0-4.23-2.28-4.23-8.45,0-16.22,12.68-43.17,23.87-43.17,3.77,0,5.14,3.31,5.14,9.02,0,3.77-.91,8.34-2.74,13.93Z"/>
  <path class="cls-1" d="M184.08,32.66c-8.68,0-16.56,12.22-23.87,26.27-.91,1.6-1.37,1.94-2.06,1.94-.57,0-.69-.91-.23-2.17l9.14-24.55c3.31-9.02,7.88-21.58,11.88-32.09.57-1.48.46-2.06-.8-2.06-1.48,0-3.88,1.03-6.62,1.94-4.11,1.71-13.7,2.63-17.02,2.63-1.37,0-2.06.34-2.06,1.14,0,.68.69.91,1.71.91,1.6,0,3.2-.23,5.94-.23,4.8,0,4.45,2.97,2.51,8.91l-20.9,62.69c-2.51,7.42-5.37,11.65-5.37,13.25,0,2.4,13.36,5.14,20.44,5.14,21.93,0,36.43-27.41,36.43-48.53,0-8.79-2.74-15.19-9.14-15.19ZM158.04,93.64c-4.34,0-8.91-3.31-7.08-8.34l4.91-13.59c5.02-14.16,15.07-30.26,21.93-30.26,3.08,0,4.11,3.08,4.11,8.45,0,16.1-9.71,43.74-23.87,43.74Z"/>
  <path class="cls-1" d="M235.35,67.26c-5.94,13.36-13.25,21.35-20.44,21.35-4.68,0-8.56-3.08-8.56-10.51,0-2.28.23-5.02.8-7.99.46-2.4,2.97-4.91,5.37-5.48,17.13-4.57,27.29-14.05,27.29-22.5,0-6.05-4.8-9.59-11.53-9.59-16.79,0-33.35,26.84-33.35,46.25,0,11.31,5.94,17.59,14.96,17.59,13.48,0,22.5-17.93,27.29-28.66.69-1.6-1.03-2.4-1.83-.46ZM209.43,60.18c3.77-12.45,10.51-24.89,17.7-24.89,2.97,0,4,2.74,4,6.62,0,8.68-5.48,17.24-18.39,21.47-2.51.69-3.88-.68-3.31-3.2Z"/>
  <path class="cls-1" d="M293.71,37.46c0-2.51-1.6-4.91-5.71-4.91-8.45,0-15.99,8.91-27.64,36.77-.57,1.26-2.28,1.26-1.48-.57l6.62-17.7c2.28-5.71,3.54-8.56,3.65-11.42.11-3.65-1.48-6.85-7.54-6.97-9.71-.23-18.16,16.79-23.18,28.09-.69,1.6-.46,2.06.23,2.06s1.14-.34,1.83-1.71c6.4-13.7,11.31-19.64,14.39-19.64,2.51.11,2.63,3.43.34,9.82l-10.96,33.23c-3.08,9.02-.11,11.88,4.8,11.88,3.54,0,7.31-1.94,7.77-5.02.46-2.28-.8-6.74,2.06-14.96,10.16-26.27,18.5-33.35,23.07-33.35,2.28,0,3.43,1.37,5.82,1.37,3.43,0,5.94-3.31,5.94-6.97Z"/>
  <path class="cls-1" d="M321.57,67.03c-.34,0-.91.23-1.26,1.03-6.05,13.02-11.65,20.1-16.44,20.1-2.4,0-3.43-1.26-3.43-3.43,0-1.83,1.14-5.37,1.94-7.54l13.02-37.8c.69-2.06,2.17-2.74,3.65-2.74h10.85c1.26,0,1.94-.8,1.94-1.6,0-.57-.46-1.26-1.37-1.26-3.08,0-6.74.91-10.51.91-2.4,0-2.51-1.6-1.83-3.54l4.45-12.45c.11-.57-.23-1.03-.91-1.03-.46,0-1.14.34-1.48,1.03-5.25,10.28-11.99,15.53-24.21,15.53-.91,0-1.6.57-1.6,1.14,0,.34.34.8,1.14.8h7.19c2.06,0,2.17,1.26,1.71,2.74l-13.36,38.14c-1.48,4.22-2.51,7.76-2.51,10.73,0,4.68,2.28,7.99,7.77,7.99,10.16,0,20.67-14.27,25.81-27.18.46-1.03,0-1.6-.57-1.6Z"/>
  <path class="cls-1" d="M374.72,40.4c-1.46-1.83-3.13-3.42-5.02-4.77-3.96-2.82-8.83-4.23-14.62-4.23s-10.47,1.43-14.5,4.28c-4.04,2.85-7.13,6.74-9.28,11.65-2.15,4.91-3.23,10.43-3.23,16.56s1.08,11.71,3.25,16.62c2.17,4.91,5.29,8.8,9.36,11.68,4.07,2.87,8.98,4.31,14.73,4.31s10.47-1.44,14.39-4.31c2.26-1.66,4.2-3.67,5.82-6.01v8.61h7.54V12.56h-8.45v27.84ZM373.53,76.66c-1.41,3.75-3.54,6.69-6.4,8.82-2.85,2.13-6.47,3.2-10.85,3.2s-7.88-1.08-10.73-3.25c-2.85-2.17-5-5.13-6.42-8.88-1.43-3.75-2.14-7.97-2.14-12.65s.69-8.83,2.08-12.56c1.39-3.73,3.53-6.68,6.42-8.85,2.89-2.17,6.55-3.25,10.96-3.25s7.87,1.05,10.71,3.14c2.83,2.09,4.96,5,6.37,8.71,1.41,3.71,2.11,7.98,2.11,12.82s-.71,9.01-2.11,12.76Z"/>
  <path class="cls-1" d="M437.53,64.01c-3.24-1.6-7.69-3.12-13.36-4.57-4.83-1.22-8.56-2.34-11.16-3.37-2.61-1.03-4.41-2.12-5.4-3.28-.99-1.16-1.48-2.56-1.48-4.2,0-2.93,1.37-5.28,4.11-7.05,2.74-1.77,6.3-2.6,10.68-2.48,4.64.08,8.48,1.17,11.51,3.28,3.03,2.11,4.82,4.98,5.4,8.59l8.56-1.54c-.42-3.58-1.75-6.72-4-9.42-2.25-2.7-5.21-4.8-8.88-6.31-3.67-1.5-7.83-2.26-12.48-2.26s-8.72.73-12.22,2.2c-3.5,1.47-6.24,3.52-8.22,6.17-1.98,2.65-2.97,5.72-2.97,9.22,0,2.89.67,5.34,2,7.34,1.33,2,3.58,3.76,6.74,5.28,3.16,1.52,7.54,3.05,13.13,4.57,5.21,1.41,9.14,2.63,11.76,3.65,2.63,1.03,4.37,2.14,5.22,3.34s1.28,2.75,1.28,4.65c0,3.39-1.35,6.06-4.05,8.02-2.7,1.96-6.4,2.94-11.08,2.94s-8.82-1.04-12.08-3.11c-3.25-2.07-5.34-4.86-6.25-8.36l-8.56,1.43c1.06,5.56,3.93,9.9,8.59,13.02,4.66,3.12,10.61,4.68,17.84,4.68s13.52-1.67,17.84-5c4.32-3.33,6.48-7.91,6.48-13.73,0-3.2-.69-5.88-2.06-8.05-1.37-2.17-3.67-4.05-6.91-5.65Z"/>
  <path class="cls-1" d="M503.25,41.63c-1.66-2.35-3.63-4.36-5.94-6-3.96-2.82-8.83-4.23-14.62-4.23s-10.47,1.43-14.5,4.28c-4.04,2.85-7.13,6.74-9.28,11.65-2.15,4.91-3.23,10.43-3.23,16.56s1.08,11.71,3.25,16.62c2.17,4.91,5.29,8.8,9.36,11.68,4.07,2.87,8.98,4.31,14.73,4.31s10.47-1.44,14.39-4.31c1.83-1.34,3.44-2.91,4.85-4.7v6.33c.04,4.83-.57,8.87-1.83,12.1-1.26,3.24-3.26,5.68-6.02,7.34-2.76,1.66-6.37,2.48-10.82,2.48-3.24,0-6.4-.75-9.51-2.26-3.1-1.5-5.51-3.97-7.22-7.39l-7.59,4.22c1.75,3.2,3.92,5.8,6.51,7.79,2.59,2,5.41,3.46,8.48,4.4,3.06.93,6.18,1.4,9.34,1.4,5.02,0,9.37-.72,13.05-2.17,3.67-1.45,6.64-3.65,8.91-6.62,2.26-2.97,3.76-6.76,4.48-11.36.27-1.56.45-3.15.54-4.77.09-1.62.14-3.3.14-5.05v-60.81h-7.48v8.51ZM494.74,85.48c-2.85,2.13-6.47,3.2-10.85,3.2s-7.88-1.08-10.73-3.25c-2.85-2.17-5-5.13-6.42-8.88-1.43-3.75-2.14-7.97-2.14-12.65s.69-8.83,2.08-12.56c1.39-3.73,3.53-6.68,6.42-8.85,2.89-2.17,6.55-3.25,10.96-3.25s7.87,1.05,10.71,3.14c2.83,2.09,4.96,5,6.37,8.71,1.41,3.71,2.11,7.98,2.11,12.82s-.71,9.01-2.11,12.76c-1.41,3.75-3.54,6.69-6.4,8.82Z"/>
  <path class="cls-1" d="M578.9,52.5c-.53-2.8-1.39-5.44-2.57-7.94-1.18-2.49-2.73-4.71-4.65-6.65-1.92-1.94-4.26-3.48-7.02-4.62-2.76-1.14-5.99-1.71-9.68-1.71-5.02,0-9.48,1.1-13.36,3.31-2.93,1.67-5.39,3.94-7.37,6.8v-8.57h-7.59v61.67h8.45v-32.89c0-3.5.4-6.62,1.2-9.36s1.97-5.07,3.51-6.99c1.54-1.92,3.44-3.4,5.71-4.42,2.26-1.03,4.88-1.54,7.85-1.54,3.23,0,5.99.59,8.25,1.77,2.26,1.18,4.11,2.85,5.54,5,1.43,2.15,2.46,4.66,3.11,7.54.65,2.87.97,6.02.97,9.45v31.46h8.45v-33.92c0-2.78-.27-5.57-.8-8.36Z"/>
</svg>